<?xml version="1.0" encoding="UTF-8"?>
<svg version="1.1" xmlns="http://www.w3.org/2000/svg" width="100" height="100">
<path d="M0 0 C33 0 66 0 100 0 C100 33 100 66 100 100 C67 100 34 100 0 100 C0 67 0 34 0 0 Z " fill="#1D2023" transform="translate(0,0)"/>
<path d="M0 0 C0.9384375 -0.02449219 1.876875 -0.04898437 2.84375 -0.07421875 C15.31072629 -0.12587749 25.27829305 5.68796375 34.375 13.875 C44.28060178 24.09821626 46.73060809 36.59627224 46.5234375 50.26953125 C46.0505034 63.05514074 40.10114813 73.02574779 30.9375 81.6875 C26.5525111 85.38170298 21.75611211 88.63472622 16.25 90.375 C14.10864258 89.91967773 14.10864258 89.91967773 12.25 89.375 C12.20101562 88.13363281 12.15203125 86.89226562 12.1015625 85.61328125 C12.02650201 83.97133306 11.95095561 82.32940703 11.875 80.6875 C11.8440625 79.87087891 11.813125 79.05425781 11.78125 78.21289062 C11.57044076 73.87373367 11.23261241 70.33216543 9.25 66.375 C10.46236328 66.02888672 10.46236328 66.02888672 11.69921875 65.67578125 C21.02323253 62.87788732 21.02323253 62.87788732 27.203125 55.6640625 C29.6548384 50.2034281 30.14899112 44.27132414 29.25 38.375 C28.76144531 37.5809375 28.27289063 36.786875 27.76953125 35.96875 C25.87454718 32.73412423 25.7505312 30.28551774 25.5625 26.5625 C25.49675781 25.40105469 25.43101563 24.23960938 25.36328125 23.04296875 C25.32589844 22.16253906 25.28851563 21.28210938 25.25 20.375 C20.31754124 20.00742749 20.31754124 20.00742749 15.88452148 21.86181641 C12.76991387 23.65074588 10.85410482 23.76165416 7.28515625 23.7734375 C5.59036133 23.77923828 5.59036133 23.77923828 3.86132812 23.78515625 C2.69021484 23.77355469 1.51910156 23.76195313 0.3125 23.75 C-0.85474609 23.76160156 -2.02199219 23.77320312 -3.22460938 23.78515625 C-9.26050287 23.76452072 -13.47040075 23.55082001 -18.75 20.375 C-21.9866963 19.66741674 -21.9866963 19.66741674 -24.75 19.375 C-24.69779297 20.69564453 -24.69779297 20.69564453 -24.64453125 22.04296875 C-24.61746094 23.20441406 -24.59039063 24.36585937 -24.5625 25.5625 C-24.51029297 27.28533203 -24.51029297 27.28533203 -24.45703125 29.04296875 C-24.78123801 32.73028027 -25.86468209 34.26519727 -27.75 37.375 C-28.68487174 44.42443824 -28.74967108 51.63915835 -24.93359375 57.83203125 C-20.66557868 63.39594529 -15.28591008 64.69977645 -8.75 66.375 C-10.375 72.125 -10.375 72.125 -13.75 74.375 C-18.2077836 74.29244845 -20.2242497 73.81126089 -23.6875 70.9375 C-25.75 68.375 -25.75 68.375 -25.75 66.375 C-28.39 65.715 -31.03 65.055 -33.75 64.375 C-33.27949219 64.89449219 -32.80898438 65.41398437 -32.32421875 65.94921875 C-29.06732968 69.59720423 -26.10434685 73.05869745 -23.75 77.375 C-21.93884044 79.18615956 -19.13721773 78.75699448 -16.6875 78.9375 C-15.03041016 79.06318359 -15.03041016 79.06318359 -13.33984375 79.19140625 C-12.48519531 79.25199219 -11.63054688 79.31257813 -10.75 79.375 C-10.75 82.675 -10.75 85.975 -10.75 89.375 C-13.75625917 90.27795914 -15.33788361 90.52423609 -18.328125 89.44140625 C-32.13528779 81.6698307 -40.70945116 72.46783558 -45.0546875 57.00390625 C-47.63627879 43.53032023 -46.11757755 31.6624138 -38.4375 20.125 C-28.53467542 6.89331895 -16.6715819 0.02252916 0 0 Z " fill="#F9FAFA" transform="translate(49.75,2.625)"/>
<path d="M0 0 C2.1875 -0.3125 2.1875 -0.3125 5 0 C7.5 2.25 7.5 2.25 10 5 C11.3921875 6.0828125 11.3921875 6.0828125 12.8125 7.1875 C13.534375 7.785625 14.25625 8.38375 15 9 C15 9.66 15 10.32 15 11 C16.98 11 18.96 11 21 11 C21 11.99 21 12.98 21 14 C11.93628671 15.59133897 11.93628671 15.59133897 8.625 13.5 C7.31490089 11.4844629 6.11511471 9.46756443 4.9375 7.375 C3.24048633 3.83862407 3.24048633 3.83862407 0 2 C0 1.34 0 0.68 0 0 Z " fill="#242629" transform="translate(16,67)"/>
</svg>
